<svg xmlns="http://www.w3.org/2000/svg" xmlns:xlink="http://www.w3.org/1999/xlink" width="78" zoomAndPan="magnify" viewBox="0 0 78 80" height="80" preserveAspectRatio="xMidYMid meet" version="1.0"><defs><g></g><clipPath id="97ec363e47"><path d="M 0 0.832031 L 77.933594 0.832031 L 77.933594 79.375 L 0 79.375 Z M 0 0.832031 " clip-rule="nonzero"></path></clipPath><clipPath id="7e3a2adb17"><path d="M 17.222656 0.832031 L 60.710938 0.832031 C 65.277344 0.832031 69.660156 2.648438 72.886719 5.878906 C 76.117188 9.109375 77.933594 13.488281 77.933594 18.054688 L 77.933594 61.945312 C 77.933594 66.511719 76.117188 70.890625 72.886719 74.121094 C 69.660156 77.351562 65.277344 79.167969 60.710938 79.167969 L 17.222656 79.167969 C 12.65625 79.167969 8.273438 77.351562 5.042969 74.121094 C 1.816406 70.890625 0 66.511719 0 61.945312 L 0 18.054688 C 0 13.488281 1.816406 9.109375 5.042969 5.878906 C 8.273438 2.648438 12.65625 0.832031 17.222656 0.832031 Z M 17.222656 0.832031 " clip-rule="nonzero"></path></clipPath><clipPath id="695d1811c4"><path d="M 0 0.832031 L 77.933594 0.832031 L 77.933594 79.179688 L 0 79.179688 Z M 0 0.832031 " clip-rule="nonzero"></path></clipPath><clipPath id="5039235fd5"><path d="M 17.222656 0.832031 L 60.710938 0.832031 C 65.277344 0.832031 69.660156 2.648438 72.886719 5.878906 C 76.117188 9.109375 77.933594 13.488281 77.933594 18.054688 L 77.933594 61.945312 C 77.933594 66.511719 76.117188 70.890625 72.886719 74.121094 C 69.660156 77.351562 65.277344 79.167969 60.710938 79.167969 L 17.222656 79.167969 C 12.65625 79.167969 8.273438 77.351562 5.042969 74.121094 C 1.816406 70.890625 0 66.511719 0 61.945312 L 0 18.054688 C 0 13.488281 1.816406 9.109375 5.042969 5.878906 C 8.273438 2.648438 12.65625 0.832031 17.222656 0.832031 Z M 17.222656 0.832031 " clip-rule="nonzero"></path></clipPath><clipPath id="e708e87047"><rect x="0" width="78" y="0" height="80"></rect></clipPath><clipPath id="1bbf854b47"><path d="M 9.902344 22.847656 L 64.523438 22.847656 L 64.523438 60 L 9.902344 60 Z M 9.902344 22.847656 " clip-rule="nonzero"></path></clipPath><clipPath id="8027ceaabc"><rect x="0" width="225" y="0" height="31"></rect></clipPath><clipPath id="5af92a543a"><path d="M 92 42 L 320.863281 42 L 320.863281 68 L 92 68 Z M 92 42 " clip-rule="nonzero"></path></clipPath><clipPath id="221029fa46"><rect x="0" width="229" y="0" height="26"></rect></clipPath><clipPath id="558a5f5536"><rect x="0" width="321" y="0" height="80"></rect></clipPath></defs><g transform="matrix(1, 0, 0, 1, 0, 5)"><g clip-path="url(#558a5f5536)"><g clip-path="url(#97ec363e47)"><g clip-path="url(#7e3a2adb17)"><g transform="matrix(1, 0, 0, 1, 0, 0.000000000000007994)"><g clip-path="url(#e708e87047)"><g clip-path="url(#695d1811c4)"><g clip-path="url(#5039235fd5)"><path fill="#ffffff" d="M 0 0.832031 L 77.933594 0.832031 L 77.933594 79.070312 L 0 79.070312 Z M 0 0.832031 " fill-opacity="1" fill-rule="nonzero"></path></g></g></g></g></g></g><g clip-path="url(#1bbf854b47)"><path fill="#000000" d="M 45.292969 55.492188 L 42.921875 57.367188 C 36.921875 62.109375 28.101562 60.113281 24.738281 53.230469 L 9.902344 22.890625 L 16.007812 22.890625 C 20.679688 22.890625 24.945312 25.546875 26.992188 29.769531 L 36.773438 49.941406 C 37.488281 51.410156 38.53125 52.691406 39.835938 53.664062 C 41.152344 54.636719 42.949219 55.472656 45.222656 55.40625 C 44.695312 54.742188 44.230469 54.03125 43.839844 53.230469 L 29.003906 22.890625 L 35.113281 22.890625 C 39.785156 22.890625 44.046875 25.546875 46.09375 29.769531 L 55.875 49.941406 C 56.589844 51.410156 57.632812 52.691406 58.9375 53.664062 C 60.289062 54.664062 62.152344 55.519531 64.511719 55.398438 L 62.019531 57.367188 C 56.753906 61.535156 49.304688 60.480469 45.292969 55.492188 Z M 57.824219 35.769531 L 64.519531 22.851562 L 47.792969 22.855469 L 54.25 35.746094 C 54.984375 37.214844 57.066406 37.230469 57.824219 35.769531 Z M 57.824219 35.769531 " fill-opacity="1" fill-rule="nonzero"></path></g><g transform="matrix(1, 0, 0, 1, 90, 16)"><g clip-path="url(#8027ceaabc)"><g fill="#ffffff" fill-opacity="1"><g transform="translate(0.364623, 24.733709)"><g><path d="M 29.140625 -22.390625 L 32.078125 -22.390625 L 25.046875 0 L 22.546875 0 L 16.40625 -15.921875 L 10.390625 0 L 7.9375 0 L 0.703125 -22.390625 L 3.671875 -22.390625 L 9.28125 -4.609375 L 15.796875 -21.9375 L 16.953125 -21.9375 L 23.703125 -4.578125 Z M 29.140625 -22.390625 "></path></g></g></g><g fill="#ffffff" fill-opacity="1"><g transform="translate(36.045817, 24.733709)"><g><path d="M 3.078125 0 L 3.078125 -22.390625 L 5.859375 -22.390625 L 5.859375 0 Z M 3.078125 0 "></path></g></g></g><g fill="#ffffff" fill-opacity="1"><g transform="translate(47.81333, 24.733709)"><g><path d="M 11.09375 -22.390625 C 12.5 -22.390625 13.757812 -22.078125 14.875 -21.453125 C 16 -20.835938 16.882812 -19.984375 17.53125 -18.890625 C 18.1875 -17.804688 18.515625 -16.582031 18.515625 -15.21875 C 18.515625 -13.851562 18.1875 -12.628906 17.53125 -11.546875 C 16.882812 -10.460938 16 -9.609375 14.875 -8.984375 C 13.757812 -8.367188 12.5 -8.0625 11.09375 -8.0625 L 5.859375 -8.0625 L 5.859375 0 L 3.078125 0 L 3.078125 -22.390625 Z M 10.9375 -10.78125 C 12.300781 -10.78125 13.425781 -11.203125 14.3125 -12.046875 C 15.195312 -12.890625 15.640625 -13.945312 15.640625 -15.21875 C 15.640625 -16.5 15.195312 -17.5625 14.3125 -18.40625 C 13.425781 -19.25 12.300781 -19.671875 10.9375 -19.671875 L 5.859375 -19.671875 L 5.859375 -10.78125 Z M 10.9375 -10.78125 "></path></g></g></g><g fill="#ffffff" fill-opacity="1"><g transform="translate(70.162959, 24.733709)"><g><path d="M 11.09375 -22.390625 C 12.5 -22.390625 13.757812 -22.078125 14.875 -21.453125 C 16 -20.835938 16.882812 -19.984375 17.53125 -18.890625 C 18.1875 -17.804688 18.515625 -16.582031 18.515625 -15.21875 C 18.515625 -13.851562 18.1875 -12.628906 17.53125 -11.546875 C 16.882812 -10.460938 16 -9.609375 14.875 -8.984375 C 13.757812 -8.367188 12.5 -8.0625 11.09375 -8.0625 L 5.859375 -8.0625 L 5.859375 0 L 3.078125 0 L 3.078125 -22.390625 Z M 10.9375 -10.78125 C 12.300781 -10.78125 13.425781 -11.203125 14.3125 -12.046875 C 15.195312 -12.890625 15.640625 -13.945312 15.640625 -15.21875 C 15.640625 -16.5 15.195312 -17.5625 14.3125 -18.40625 C 13.425781 -19.25 12.300781 -19.671875 10.9375 -19.671875 L 5.859375 -19.671875 L 5.859375 -10.78125 Z M 10.9375 -10.78125 "></path></g></g></g><g fill="#ffffff" fill-opacity="1"><g transform="translate(92.512588, 24.733709)"><g><path d="M 5.859375 -2.625 L 15.703125 -2.625 L 15.703125 0 L 3.078125 0 L 3.078125 -22.390625 L 5.859375 -22.390625 Z M 5.859375 -2.625 "></path></g></g></g><g fill="#ffffff" fill-opacity="1"><g transform="translate(111.729151, 24.733709)"><g><path d="M 3.078125 0 L 3.078125 -22.390625 L 5.859375 -22.390625 L 5.859375 0 Z M 3.078125 0 "></path></g></g></g><g fill="#ffffff" fill-opacity="1"><g transform="translate(123.496663, 24.733709)"><g><path d="M 18.171875 -22.390625 L 20.921875 -22.390625 L 20.921875 0 L 18.546875 0 L 5.796875 -17.46875 L 5.796875 0 L 3.078125 0 L 3.078125 -22.390625 L 5.59375 -22.390625 L 18.171875 -5.125 Z M 18.171875 -22.390625 "></path></g></g></g><g fill="#ffffff" fill-opacity="1"><g transform="translate(150.29014, 24.733709)"><g><path d="M 12.09375 -11.09375 L 24.078125 -11.09375 C 24.035156 -8.851562 23.535156 -6.867188 22.578125 -5.140625 C 21.617188 -3.421875 20.300781 -2.066406 18.625 -1.078125 C 16.957031 -0.0976562 15.046875 0.390625 12.890625 0.390625 C 11.242188 0.390625 9.726562 0.101562 8.34375 -0.46875 C 6.957031 -1.050781 5.757812 -1.863281 4.75 -2.90625 C 3.738281 -3.957031 2.945312 -5.1875 2.375 -6.59375 C 1.8125 -8 1.53125 -9.53125 1.53125 -11.1875 C 1.53125 -12.851562 1.8125 -14.390625 2.375 -15.796875 C 2.945312 -17.203125 3.738281 -18.421875 4.75 -19.453125 C 5.757812 -20.492188 6.953125 -21.300781 8.328125 -21.875 C 9.703125 -22.445312 11.203125 -22.734375 12.828125 -22.734375 C 14.640625 -22.734375 16.304688 -22.378906 17.828125 -21.671875 C 19.359375 -20.972656 20.644531 -20.007812 21.6875 -18.78125 C 22.726562 -17.5625 23.410156 -16.160156 23.734375 -14.578125 L 20.859375 -14.578125 C 20.535156 -15.648438 19.984375 -16.585938 19.203125 -17.390625 C 18.429688 -18.203125 17.503906 -18.835938 16.421875 -19.296875 C 15.347656 -19.753906 14.171875 -19.984375 12.890625 -19.984375 C 11.242188 -19.984375 9.78125 -19.601562 8.5 -18.84375 C 7.226562 -18.09375 6.226562 -17.054688 5.5 -15.734375 C 4.769531 -14.410156 4.40625 -12.894531 4.40625 -11.1875 C 4.40625 -9.46875 4.765625 -7.941406 5.484375 -6.609375 C 6.203125 -5.273438 7.191406 -4.234375 8.453125 -3.484375 C 9.722656 -2.734375 11.203125 -2.359375 12.890625 -2.359375 C 14.273438 -2.359375 15.53125 -2.613281 16.65625 -3.125 C 17.789062 -3.644531 18.734375 -4.359375 19.484375 -5.265625 C 20.242188 -6.171875 20.765625 -7.226562 21.046875 -8.4375 L 12.09375 -8.4375 Z M 12.09375 -11.09375 "></path></g></g></g><g fill="#ffffff" fill-opacity="1"><g transform="translate(178.650174, 24.733709)"><g><path d="M 5.859375 -2.6875 L 16.09375 -2.6875 L 16.09375 0 L 3.078125 0 L 3.078125 -22.390625 L 15.734375 -22.390625 L 15.734375 -19.734375 L 5.859375 -19.734375 L 5.859375 -12.796875 L 14.90625 -12.796875 L 14.90625 -10.203125 L 5.859375 -10.203125 Z M 5.859375 -2.6875 "></path></g></g></g><g fill="#ffffff" fill-opacity="1"><g transform="translate(199.177517, 24.733709)"><g><path d="M 16.09375 0 L 10.96875 -8.765625 L 5.859375 -8.765625 L 5.859375 0 L 3.078125 0 L 3.078125 -22.390625 L 11.546875 -22.390625 C 12.953125 -22.390625 14.203125 -22.09375 15.296875 -21.5 C 16.398438 -20.914062 17.265625 -20.109375 17.890625 -19.078125 C 18.523438 -18.046875 18.84375 -16.867188 18.84375 -15.546875 C 18.84375 -13.960938 18.390625 -12.59375 17.484375 -11.4375 C 16.578125 -10.289062 15.382812 -9.503906 13.90625 -9.078125 L 19.25 0 Z M 5.859375 -19.734375 L 5.859375 -11.421875 L 11.421875 -11.421875 C 12.785156 -11.421875 13.882812 -11.804688 14.71875 -12.578125 C 15.5625 -13.359375 15.984375 -14.359375 15.984375 -15.578125 C 15.984375 -16.773438 15.5625 -17.765625 14.71875 -18.546875 C 13.882812 -19.335938 12.785156 -19.734375 11.421875 -19.734375 Z M 5.859375 -19.734375 "></path></g></g></g></g></g><g clip-path="url(#5af92a543a)"><g transform="matrix(1, 0, 0, 1, 92, 42)"><g clip-path="url(#221029fa46)"><g fill="#ffffff" fill-opacity="1"><g transform="translate(0.725798, 20.113623)"><g><path d="M 8.25 0.09375 C 6.894531 0.09375 5.671875 -0.207031 4.578125 -0.8125 C 3.492188 -1.414062 2.640625 -2.25 2.015625 -3.3125 C 1.390625 -4.375 1.078125 -5.570312 1.078125 -6.90625 C 1.078125 -8.226562 1.390625 -9.421875 2.015625 -10.484375 C 2.640625 -11.554688 3.492188 -12.394531 4.578125 -13 C 5.671875 -13.601562 6.894531 -13.90625 8.25 -13.90625 C 9.238281 -13.90625 10.15625 -13.742188 11 -13.421875 C 11.84375 -13.097656 12.5625 -12.617188 13.15625 -11.984375 L 12.515625 -11.34375 C 11.410156 -12.425781 10 -12.96875 8.28125 -12.96875 C 7.125 -12.96875 6.070312 -12.703125 5.125 -12.171875 C 4.175781 -11.648438 3.429688 -10.925781 2.890625 -10 C 2.359375 -9.070312 2.09375 -8.039062 2.09375 -6.90625 C 2.09375 -5.757812 2.359375 -4.722656 2.890625 -3.796875 C 3.429688 -2.867188 4.175781 -2.140625 5.125 -1.609375 C 6.070312 -1.085938 7.125 -0.828125 8.28125 -0.828125 C 9.988281 -0.828125 11.398438 -1.378906 12.515625 -2.484375 L 13.15625 -1.828125 C 12.5625 -1.203125 11.835938 -0.722656 10.984375 -0.390625 C 10.140625 -0.0664062 9.226562 0.09375 8.25 0.09375 Z M 8.25 0.09375 "></path></g></g></g><g fill="#ffffff" fill-opacity="1"><g transform="translate(24.084708, 20.113623)"><g><path d="M 8.265625 0.09375 C 6.910156 0.09375 5.6875 -0.207031 4.59375 -0.8125 C 3.5 -1.425781 2.640625 -2.265625 2.015625 -3.328125 C 1.390625 -4.390625 1.078125 -5.582031 1.078125 -6.90625 C 1.078125 -8.21875 1.390625 -9.40625 2.015625 -10.46875 C 2.640625 -11.53125 3.5 -12.367188 4.59375 -12.984375 C 5.6875 -13.597656 6.910156 -13.90625 8.265625 -13.90625 C 9.617188 -13.90625 10.835938 -13.601562 11.921875 -13 C 13.015625 -12.394531 13.875 -11.554688 14.5 -10.484375 C 15.125 -9.421875 15.4375 -8.226562 15.4375 -6.90625 C 15.4375 -5.570312 15.125 -4.375 14.5 -3.3125 C 13.875 -2.25 13.015625 -1.414062 11.921875 -0.8125 C 10.835938 -0.207031 9.617188 0.09375 8.265625 0.09375 Z M 8.265625 -0.828125 C 9.421875 -0.828125 10.460938 -1.085938 11.390625 -1.609375 C 12.328125 -2.140625 13.066406 -2.867188 13.609375 -3.796875 C 14.148438 -4.722656 14.421875 -5.757812 14.421875 -6.90625 C 14.421875 -8.039062 14.148438 -9.070312 13.609375 -10 C 13.066406 -10.925781 12.328125 -11.648438 11.390625 -12.171875 C 10.460938 -12.703125 9.421875 -12.96875 8.265625 -12.96875 C 7.109375 -12.96875 6.054688 -12.703125 5.109375 -12.171875 C 4.171875 -11.648438 3.429688 -10.925781 2.890625 -10 C 2.359375 -9.070312 2.09375 -8.039062 2.09375 -6.90625 C 2.09375 -5.757812 2.359375 -4.722656 2.890625 -3.796875 C 3.429688 -2.867188 4.171875 -2.140625 5.109375 -1.609375 C 6.054688 -1.085938 7.109375 -0.828125 8.265625 -0.828125 Z M 8.265625 -0.828125 "></path></g></g></g><g fill="#ffffff" fill-opacity="1"><g transform="translate(50.143809, 20.113623)"><g><path d="M 13.640625 -13.796875 L 13.640625 0 L 12.8125 0 L 3.40625 -11.984375 L 3.40625 0 L 2.40625 0 L 2.40625 -13.796875 L 3.25 -13.796875 L 12.640625 -1.8125 L 12.640625 -13.796875 Z M 13.640625 -13.796875 "></path></g></g></g><g fill="#ffffff" fill-opacity="1"><g transform="translate(75.729885, 20.113623)"><g><path d="M 6.03125 0.09375 C 5.019531 0.09375 4.054688 -0.078125 3.140625 -0.421875 C 2.234375 -0.773438 1.519531 -1.226562 1 -1.78125 L 1.453125 -2.53125 C 1.941406 -2.007812 2.597656 -1.585938 3.421875 -1.265625 C 4.242188 -0.941406 5.109375 -0.78125 6.015625 -0.78125 C 7.328125 -0.78125 8.316406 -1.03125 8.984375 -1.53125 C 9.660156 -2.03125 10 -2.679688 10 -3.484375 C 10 -4.109375 9.820312 -4.601562 9.46875 -4.96875 C 9.113281 -5.332031 8.671875 -5.613281 8.140625 -5.8125 C 7.617188 -6.007812 6.910156 -6.210938 6.015625 -6.421875 C 5.003906 -6.671875 4.191406 -6.914062 3.578125 -7.15625 C 2.960938 -7.394531 2.441406 -7.757812 2.015625 -8.25 C 1.585938 -8.738281 1.375 -9.398438 1.375 -10.234375 C 1.375 -10.898438 1.550781 -11.515625 1.90625 -12.078125 C 2.257812 -12.640625 2.800781 -13.082031 3.53125 -13.40625 C 4.269531 -13.738281 5.179688 -13.90625 6.265625 -13.90625 C 7.035156 -13.90625 7.785156 -13.789062 8.515625 -13.5625 C 9.253906 -13.34375 9.894531 -13.039062 10.4375 -12.65625 L 10.0625 -11.84375 C 9.507812 -12.226562 8.898438 -12.519531 8.234375 -12.71875 C 7.566406 -12.914062 6.910156 -13.015625 6.265625 -13.015625 C 4.992188 -13.015625 4.03125 -12.753906 3.375 -12.234375 C 2.71875 -11.722656 2.390625 -11.0625 2.390625 -10.25 C 2.390625 -9.632812 2.566406 -9.140625 2.921875 -8.765625 C 3.273438 -8.398438 3.710938 -8.117188 4.234375 -7.921875 C 4.765625 -7.722656 5.484375 -7.515625 6.390625 -7.296875 C 7.398438 -7.046875 8.207031 -6.800781 8.8125 -6.5625 C 9.414062 -6.332031 9.929688 -5.972656 10.359375 -5.484375 C 10.785156 -5.003906 11 -4.359375 11 -3.546875 C 11 -2.878906 10.816406 -2.269531 10.453125 -1.71875 C 10.097656 -1.164062 9.546875 -0.722656 8.796875 -0.390625 C 8.046875 -0.0664062 7.125 0.09375 6.03125 0.09375 Z M 6.03125 0.09375 "></path></g></g></g><g fill="#ffffff" fill-opacity="1"><g transform="translate(97.275644, 20.113623)"><g><path d="M 7.8125 0.09375 C 6.0625 0.09375 4.703125 -0.410156 3.734375 -1.421875 C 2.765625 -2.429688 2.28125 -3.910156 2.28125 -5.859375 L 2.28125 -13.796875 L 3.296875 -13.796875 L 3.296875 -5.890625 C 3.296875 -4.203125 3.679688 -2.9375 4.453125 -2.09375 C 5.234375 -1.25 6.359375 -0.828125 7.828125 -0.828125 C 9.285156 -0.828125 10.398438 -1.25 11.171875 -2.09375 C 11.953125 -2.9375 12.34375 -4.203125 12.34375 -5.890625 L 12.34375 -13.796875 L 13.34375 -13.796875 L 13.34375 -5.859375 C 13.34375 -3.910156 12.859375 -2.429688 11.890625 -1.421875 C 10.921875 -0.410156 9.5625 0.09375 7.8125 0.09375 Z M 7.8125 0.09375 "></path></g></g></g><g fill="#ffffff" fill-opacity="1"><g transform="translate(122.447839, 20.113623)"><g><path d="M 2.40625 -13.796875 L 3.40625 -13.796875 L 3.40625 -0.90625 L 11.359375 -0.90625 L 11.359375 0 L 2.40625 0 Z M 2.40625 -13.796875 "></path></g></g></g><g fill="#ffffff" fill-opacity="1"><g transform="translate(142.239192, 20.113623)"><g><path d="M 5.046875 -12.890625 L 0.078125 -12.890625 L 0.078125 -13.796875 L 11.015625 -13.796875 L 11.015625 -12.890625 L 6.046875 -12.890625 L 6.046875 0 L 5.046875 0 Z M 5.046875 -12.890625 "></path></g></g></g><g fill="#ffffff" fill-opacity="1"><g transform="translate(162.878349, 20.113623)"><g><path d="M 2.40625 -13.796875 L 3.40625 -13.796875 L 3.40625 0 L 2.40625 0 Z M 2.40625 -13.796875 "></path></g></g></g><g fill="#ffffff" fill-opacity="1"><g transform="translate(178.235531, 20.113623)"><g><path d="M 13.640625 -13.796875 L 13.640625 0 L 12.8125 0 L 3.40625 -11.984375 L 3.40625 0 L 2.40625 0 L 2.40625 -13.796875 L 3.25 -13.796875 L 12.640625 -1.8125 L 12.640625 -13.796875 Z M 13.640625 -13.796875 "></path></g></g></g><g fill="#ffffff" fill-opacity="1"><g transform="translate(203.821608, 20.113623)"><g><path d="M 12.265625 -6.84375 L 13.234375 -6.84375 L 13.234375 -1.671875 C 12.628906 -1.097656 11.894531 -0.660156 11.03125 -0.359375 C 10.164062 -0.0546875 9.253906 0.09375 8.296875 0.09375 C 6.929688 0.09375 5.695312 -0.207031 4.59375 -0.8125 C 3.5 -1.414062 2.640625 -2.25 2.015625 -3.3125 C 1.390625 -4.375 1.078125 -5.570312 1.078125 -6.90625 C 1.078125 -8.226562 1.390625 -9.421875 2.015625 -10.484375 C 2.640625 -11.554688 3.5 -12.394531 4.59375 -13 C 5.695312 -13.601562 6.941406 -13.90625 8.328125 -13.90625 C 9.335938 -13.90625 10.265625 -13.742188 11.109375 -13.421875 C 11.960938 -13.097656 12.691406 -12.628906 13.296875 -12.015625 L 12.65625 -11.34375 C 12.082031 -11.914062 11.4375 -12.328125 10.71875 -12.578125 C 10 -12.835938 9.207031 -12.96875 8.34375 -12.96875 C 7.15625 -12.96875 6.082031 -12.703125 5.125 -12.171875 C 4.175781 -11.648438 3.429688 -10.925781 2.890625 -10 C 2.359375 -9.070312 2.09375 -8.039062 2.09375 -6.90625 C 2.09375 -5.769531 2.363281 -4.738281 2.90625 -3.8125 C 3.457031 -2.882812 4.203125 -2.15625 5.140625 -1.625 C 6.085938 -1.09375 7.15625 -0.828125 8.34375 -0.828125 C 9.914062 -0.828125 11.222656 -1.25 12.265625 -2.09375 Z M 12.265625 -6.84375 "></path></g></g></g></g></g></g></g></g></svg>